<svg width="100" height="100" xmlns="http://www.w3.org/2000/svg">
  <circle cx="50" cy="50" r="45" fill="#ffe0f0" stroke="#ff69b4" stroke-width="3"/>
  <!-- 머리카락 -->
  <path d="M 20 35 Q 50 15 80 35 Q 75 25 50 25 Q 25 25 20 35" fill="#8b4513"/>
  <!-- 얼굴 -->
  <circle cx="50" cy="50" r="35" fill="#ffe0f0"/>
  <!-- 눈 -->
  <circle cx="40" cy="45" r="4" fill="#333"/>
  <circle cx="60" cy="45" r="4" fill="#333"/>
  <circle cx="41" cy="44" r="1.5" fill="#fff"/>
  <circle cx="61" cy="44" r="1.5" fill="#fff"/>
  <!-- 볼 -->
  <circle cx="32" cy="55" r="3" fill="#ffb3d3" opacity="0.6"/>
  <circle cx="68" cy="55" r="3" fill="#ffb3d3" opacity="0.6"/>
  <!-- 입 -->
  <path d="M 42 60 Q 50 68 58 60" stroke="#ff69b4" stroke-width="2" fill="none"/>
  <!-- 하트 -->
  <path d="M 75 25 C 75 20, 85 20, 85 25 C 85 20, 95 20, 95 25 C 95 35, 85 40, 75 25" fill="#ff1493"/>
  <text x="50" y="90" font-family="Arial" font-size="8" fill="#ff69b4" text-anchor="middle">윤아</text>
</svg>